<svg aria-hidden="true" style="position: absolute; width: 0; height: 0; overflow: hidden;" version="1.1" xmlns="http://www.w3.org/2000/svg" xmlns:xlink="http://www.w3.org/1999/xlink">
<defs>
<symbol id="icon-arrow" viewBox="0 0 49 32">
<path stroke-linejoin="miter" stroke-linecap="butt" stroke-miterlimit="4" stroke-width="0.5" d="M31.75 16c0 8.698-7.052 15.75-15.75 15.75s-15.75-7.052-15.75-15.75c0-8.698 7.051-15.75 15.75-15.75s15.75 7.051 15.75 15.75z"></path>
<path d="M48.177 16.177c0.098-0.098 0.098-0.256 0-0.354l-1.591-1.591c-0.098-0.098-0.256-0.098-0.354 0s-0.098 0.256 0 0.354l1.414 1.414-1.414 1.414c-0.098 0.098-0.098 0.256 0 0.354s0.256 0.098 0.354 0l1.591-1.591zM15 16.25h33v-0.5h-33v0.5z"></path>
</symbol>
<symbol id="icon-facebook" viewBox="0 0 32 32">
<path stroke-linejoin="round" stroke-linecap="round" stroke-miterlimit="4" stroke-width="2.2857" d="M24 2.667h-4c-1.768 0-3.464 0.702-4.714 1.953s-1.953 2.946-1.953 4.714v4h-4v5.333h4v10.667h5.333v-10.667h4l1.333-5.333h-5.333v-4c0-0.354 0.14-0.693 0.39-0.943s0.589-0.391 0.943-0.391h4v-5.333z"></path>
</symbol>
<symbol id="icon-instagram" viewBox="0 0 32 32">
<path stroke-linejoin="round" stroke-linecap="round" stroke-miterlimit="4" stroke-width="2.2857" d="M22.666 2.667h-13.333c-3.682 0-6.667 2.985-6.667 6.667v13.333c0 3.682 2.985 6.667 6.667 6.667h13.333c3.682 0 6.667-2.985 6.667-6.667v-13.333c0-3.682-2.985-6.667-6.667-6.667z"></path>
<path stroke-linejoin="round" stroke-linecap="round" stroke-miterlimit="4" stroke-width="2.2857" d="M21.333 15.16c0.164 1.11-0.025 2.243-0.542 3.239s-1.334 1.803-2.336 2.308c-1.002 0.504-2.137 0.68-3.245 0.502s-2.131-0.701-2.924-1.494c-0.793-0.793-1.316-1.816-1.494-2.924s-0.003-2.243 0.502-3.245c0.504-1.002 1.312-1.819 2.307-2.336s2.129-0.706 3.239-0.542c1.132 0.168 2.18 0.695 2.989 1.504s1.337 1.857 1.504 2.989z"></path>
<path stroke-linejoin="round" stroke-linecap="round" stroke-miterlimit="4" stroke-width="2.2857" d="M23.334 8.667h0.013"></path>
</symbol>
<symbol id="icon-ellipse" viewBox="0 0 32 32">
<path stroke-linejoin="miter" stroke-linecap="butt" stroke-miterlimit="4" stroke-width="0.8" d="M31.6 16c0 8.616-6.984 15.6-15.6 15.6s-15.6-6.984-15.6-15.6c0-8.616 6.984-15.6 15.6-15.6s15.6 6.984 15.6 15.6z"></path>
</symbol>
<symbol id="icon-circle_text" viewBox="0 0 29 32">
<path d="M19.851 13.314c0.018-0.115-0.060-0.223-0.175-0.241l-1.871-0.296c-0.115-0.018-0.223 0.060-0.241 0.175s0.060 0.223 0.175 0.241l1.663 0.263-0.263 1.664c-0.018 0.115 0.060 0.223 0.175 0.241s0.223-0.060 0.241-0.175l0.296-1.871zM10.229 20.381l9.538-6.93-0.247-0.341-9.538 6.93 0.248 0.341z"></path>
<path d="M24.701 17.053c0.027-0.236 0.084-0.455 0.173-0.658 0.093-0.203 0.196-0.358 0.311-0.466l0.285 0.208c-0.1 0.106-0.193 0.246-0.279 0.42-0.082 0.174-0.134 0.361-0.157 0.561-0.031 0.272-0.011 0.472 0.059 0.601 0.074 0.129 0.181 0.202 0.322 0.218 0.105 0.012 0.191-0.014 0.256-0.076 0.069-0.058 0.124-0.14 0.165-0.246 0.045-0.105 0.086-0.224 0.123-0.355s0.077-0.263 0.122-0.394c0.044-0.127 0.099-0.242 0.166-0.345 0.070-0.102 0.158-0.182 0.264-0.24 0.105-0.054 0.239-0.072 0.403-0.054 0.156 0.017 0.291 0.077 0.404 0.177s0.195 0.238 0.245 0.413c0.053 0.179 0.066 0.389 0.039 0.632-0.021 0.185-0.067 0.367-0.139 0.546-0.068 0.18-0.149 0.325-0.242 0.436l-0.291-0.203c0.101-0.117 0.178-0.246 0.231-0.387 0.056-0.141 0.093-0.283 0.109-0.428 0.029-0.257 0.005-0.453-0.072-0.586-0.074-0.129-0.179-0.202-0.317-0.217-0.109-0.012-0.198 0.011-0.267 0.069-0.069 0.062-0.128 0.145-0.177 0.25-0.045 0.109-0.086 0.227-0.123 0.355-0.037 0.132-0.079 0.261-0.126 0.388-0.044 0.131-0.1 0.248-0.166 0.35-0.063 0.107-0.148 0.187-0.253 0.242-0.102 0.058-0.231 0.079-0.387 0.061-0.167-0.019-0.307-0.082-0.419-0.19-0.109-0.104-0.189-0.249-0.238-0.434-0.046-0.181-0.054-0.397-0.026-0.647z"></path>
<path d="M26.672 21.102c-0.087 0.217-0.206 0.389-0.356 0.518-0.148 0.133-0.325 0.212-0.531 0.236-0.208 0.027-0.44-0.011-0.698-0.114l-1.55-0.62 0.145-0.36 1.515 0.606c0.281 0.112 0.522 0.126 0.721 0.041 0.202-0.081 0.353-0.248 0.456-0.502 0.076-0.19 0.104-0.371 0.083-0.544-0.019-0.169-0.085-0.321-0.2-0.457-0.112-0.131-0.27-0.238-0.473-0.319l-1.403-0.561 0.145-0.361 3.771 1.508-0.145 0.361-1.835-0.734 0.166-0.016c0.159 0.162 0.255 0.358 0.289 0.587 0.037 0.231 0.004 0.475-0.1 0.732z"></path>
<path d="M22.514 22.446c0.175-0.215 0.382-0.369 0.619-0.463 0.238-0.089 0.482-0.114 0.733-0.075 0.254 0.041 0.491 0.152 0.712 0.331 0.224 0.182 0.38 0.391 0.469 0.628s0.113 0.479 0.070 0.727c-0.042 0.248-0.152 0.48-0.33 0.698-0.18 0.22-0.388 0.376-0.622 0.468-0.237 0.094-0.48 0.12-0.728 0.078-0.251-0.039-0.488-0.15-0.712-0.331-0.221-0.179-0.377-0.389-0.469-0.628-0.091-0.234-0.116-0.478-0.075-0.73 0.044-0.251 0.156-0.485 0.334-0.702zM22.782 22.663c-0.132 0.161-0.213 0.332-0.244 0.514-0.028 0.184-0.006 0.364 0.067 0.541 0.073 0.182 0.196 0.342 0.369 0.483 0.176 0.143 0.359 0.23 0.549 0.262 0.188 0.035 0.368 0.019 0.541-0.047 0.175-0.064 0.328-0.176 0.457-0.334s0.208-0.329 0.236-0.514c0.031-0.182 0.011-0.362-0.059-0.542s-0.193-0.34-0.369-0.483c-0.173-0.14-0.356-0.228-0.549-0.262-0.19-0.032-0.373-0.016-0.548 0.048-0.172 0.067-0.322 0.178-0.449 0.333z"></path>
<path d="M19.979 24.742c0.207-0.137 0.425-0.215 0.655-0.232 0.232-0.014 0.458 0.035 0.678 0.147 0.219 0.117 0.416 0.306 0.591 0.567s0.273 0.513 0.296 0.756c0.025 0.247-0.015 0.473-0.119 0.678s-0.261 0.378-0.471 0.517c-0.228 0.152-0.466 0.236-0.714 0.252-0.249 0.021-0.488-0.026-0.715-0.142-0.225-0.113-0.418-0.29-0.578-0.529-0.162-0.243-0.253-0.489-0.271-0.74s0.029-0.488 0.142-0.713c0.11-0.222 0.279-0.409 0.507-0.561zM20.638 23.060l2.19 3.27-0.31 0.206-0.481-0.719-0.288-0.499-0.368-0.452-1.066-1.592 0.324-0.215zM20.194 25.013c-0.17 0.113-0.297 0.252-0.38 0.417-0.081 0.168-0.114 0.348-0.1 0.54 0.016 0.195 0.087 0.385 0.21 0.57s0.272 0.321 0.444 0.408c0.172 0.087 0.352 0.125 0.538 0.115s0.365-0.072 0.535-0.185c0.17-0.113 0.297-0.255 0.381-0.424 0.081-0.168 0.114-0.348 0.1-0.54-0.017-0.19-0.088-0.377-0.212-0.562s-0.271-0.323-0.443-0.415c-0.172-0.087-0.352-0.125-0.538-0.115-0.188 0.015-0.366 0.079-0.536 0.193z"></path>
<path d="M16.254 29.188c-0.231 0.036-0.44 0.022-0.627-0.041-0.19-0.059-0.348-0.171-0.473-0.337-0.129-0.165-0.215-0.384-0.258-0.658l-0.257-1.65 0.384-0.059 0.251 1.612c0.047 0.299 0.157 0.513 0.332 0.641 0.172 0.132 0.393 0.177 0.664 0.136 0.202-0.031 0.372-0.1 0.511-0.206 0.136-0.102 0.233-0.237 0.291-0.405 0.056-0.164 0.067-0.354 0.033-0.57l-0.233-1.493 0.384-0.059 0.442 2.839-0.368 0.057-0.121-0.779 0.082 0.137c-0.058 0.22-0.177 0.402-0.358 0.548-0.18 0.15-0.407 0.246-0.681 0.288z"></path>
<path d="M12.936 26.308c0.274 0.040 0.513 0.138 0.715 0.293 0.198 0.158 0.344 0.355 0.438 0.59 0.094 0.239 0.12 0.499 0.078 0.78-0.042 0.285-0.142 0.527-0.301 0.725s-0.355 0.342-0.59 0.433c-0.235 0.091-0.491 0.116-0.769 0.075-0.282-0.041-0.522-0.139-0.72-0.294-0.202-0.155-0.348-0.35-0.439-0.585-0.094-0.235-0.12-0.495-0.078-0.78 0.042-0.282 0.142-0.523 0.301-0.725 0.155-0.199 0.352-0.345 0.591-0.439 0.238-0.090 0.497-0.115 0.775-0.074zM12.885 26.649c-0.206-0.030-0.395-0.012-0.567 0.055-0.173 0.071-0.316 0.182-0.431 0.335-0.119 0.156-0.195 0.344-0.227 0.564-0.033 0.224-0.015 0.426 0.054 0.605 0.066 0.179 0.171 0.326 0.317 0.439 0.145 0.117 0.319 0.191 0.521 0.22s0.39 0.009 0.562-0.061c0.172-0.067 0.318-0.177 0.436-0.329s0.194-0.34 0.227-0.564c0.033-0.22 0.014-0.422-0.054-0.605-0.069-0.18-0.176-0.328-0.321-0.446-0.146-0.114-0.318-0.185-0.516-0.214z"></path>
<path d="M10.539 25.818l-0.419 3.040-0.327-0.177 0.407-2.81 0.149 0.081-2.164 1.86-0.294-0.159 0.392-2.818 0.149 0.081-2.155 1.866-0.313-0.169 2.331-2.007 0.323 0.174-0.35 2.66-0.101-0.055 2.050-1.742 0.323 0.174z"></path>
<path d="M5.941 22.196c0.139 0.192 0.244 0.393 0.315 0.603 0.068 0.212 0.096 0.396 0.083 0.554l-0.352 0.037c0.003-0.146-0.023-0.312-0.077-0.498-0.057-0.184-0.144-0.357-0.262-0.52-0.16-0.222-0.31-0.357-0.449-0.405-0.142-0.046-0.27-0.028-0.386 0.055-0.086 0.062-0.132 0.138-0.139 0.228-0.012 0.089 0.003 0.187 0.043 0.293 0.038 0.108 0.087 0.223 0.148 0.345s0.12 0.246 0.175 0.373c0.053 0.123 0.090 0.246 0.11 0.366 0.017 0.123 0.006 0.241-0.034 0.355-0.041 0.111-0.129 0.214-0.262 0.31-0.127 0.092-0.267 0.138-0.419 0.14s-0.306-0.045-0.46-0.141c-0.16-0.096-0.311-0.243-0.455-0.441-0.109-0.151-0.198-0.316-0.265-0.497-0.071-0.178-0.109-0.34-0.114-0.484l0.353-0.045c0.004 0.155 0.034 0.302 0.090 0.441 0.053 0.142 0.122 0.272 0.208 0.39 0.152 0.21 0.301 0.338 0.448 0.386 0.142 0.046 0.269 0.029 0.381-0.052 0.089-0.064 0.139-0.141 0.151-0.23 0.010-0.092-0.003-0.194-0.037-0.304-0.040-0.111-0.089-0.226-0.148-0.345-0.061-0.122-0.117-0.246-0.168-0.372-0.056-0.126-0.093-0.25-0.113-0.371-0.025-0.121-0.017-0.238 0.025-0.348 0.036-0.112 0.118-0.213 0.246-0.305 0.136-0.098 0.283-0.145 0.439-0.14 0.151 0.004 0.307 0.058 0.469 0.162 0.156 0.104 0.308 0.257 0.456 0.461z"></path>
<path d="M1.753 20.529c-0.081-0.219-0.11-0.426-0.085-0.622 0.020-0.198 0.098-0.375 0.235-0.53 0.136-0.159 0.333-0.287 0.593-0.383l1.566-0.579 0.136 0.364-1.53 0.566c-0.284 0.105-0.471 0.256-0.562 0.453-0.095 0.195-0.095 0.42 0.001 0.677 0.071 0.192 0.173 0.345 0.305 0.459 0.127 0.112 0.279 0.181 0.456 0.205 0.172 0.022 0.36-0.005 0.566-0.081l1.417-0.524 0.136 0.364-3.809 1.409-0.136-0.364 1.853-0.685-0.112 0.123c-0.227-0.013-0.43-0.094-0.61-0.241-0.183-0.146-0.323-0.349-0.42-0.609z"></path>
<path d="M3.92 16.759c0.015 0.277-0.033 0.53-0.145 0.759-0.116 0.226-0.279 0.408-0.491 0.547-0.215 0.14-0.465 0.217-0.749 0.232-0.288 0.016-0.545-0.035-0.77-0.15s-0.406-0.28-0.542-0.492c-0.136-0.212-0.211-0.458-0.226-0.739-0.015-0.284 0.033-0.539 0.145-0.764 0.112-0.229 0.274-0.411 0.486-0.547 0.212-0.139 0.462-0.217 0.749-0.232 0.284-0.015 0.541 0.035 0.77 0.15 0.225 0.112 0.408 0.276 0.547 0.491 0.136 0.216 0.212 0.464 0.227 0.744zM3.575 16.778c-0.011-0.208-0.067-0.389-0.167-0.545-0.103-0.155-0.241-0.274-0.414-0.356-0.176-0.086-0.376-0.122-0.598-0.11-0.226 0.012-0.42 0.070-0.583 0.174-0.163 0.1-0.285 0.233-0.368 0.398-0.086 0.165-0.124 0.35-0.112 0.554s0.068 0.384 0.172 0.539c0.1 0.155 0.236 0.276 0.409 0.362s0.372 0.122 0.598 0.11c0.222-0.012 0.416-0.070 0.583-0.174 0.162-0.104 0.287-0.238 0.373-0.404 0.082-0.165 0.118-0.348 0.107-0.548z"></path>
<path d="M4.242 13.351c-0.061 0.241-0.17 0.445-0.329 0.612-0.162 0.166-0.362 0.282-0.601 0.346-0.241 0.060-0.514 0.052-0.818-0.024s-0.547-0.197-0.727-0.362c-0.184-0.166-0.306-0.361-0.367-0.583s-0.060-0.455 0.001-0.699c0.067-0.265 0.187-0.488 0.359-0.666 0.17-0.183 0.378-0.308 0.625-0.374 0.243-0.067 0.504-0.066 0.784 0.004 0.283 0.071 0.516 0.193 0.698 0.366s0.307 0.381 0.374 0.624c0.068 0.239 0.068 0.491 0.002 0.756zM4.884 15.040l-3.818-0.954 0.091-0.361 0.839 0.21 0.548 0.177 0.576 0.088 1.859 0.464-0.095 0.377zM3.901 13.294c0.050-0.198 0.050-0.386 0.001-0.564-0.053-0.179-0.149-0.334-0.289-0.467-0.143-0.134-0.323-0.227-0.539-0.281s-0.417-0.055-0.603-0.004-0.345 0.143-0.476 0.276c-0.131 0.133-0.222 0.298-0.272 0.496s-0.049 0.388 0.003 0.571c0.053 0.179 0.149 0.334 0.289 0.467 0.141 0.129 0.319 0.221 0.535 0.275s0.418 0.058 0.607 0.011c0.186-0.051 0.345-0.143 0.476-0.276 0.129-0.137 0.218-0.305 0.268-0.503z"></path>
<path d="M3.999 7.578c0.147-0.181 0.311-0.311 0.493-0.39 0.181-0.084 0.373-0.107 0.577-0.069 0.206 0.035 0.418 0.14 0.634 0.314l1.3 1.048-0.245 0.302-1.27-1.024c-0.236-0.19-0.462-0.274-0.678-0.251-0.216 0.018-0.411 0.133-0.583 0.345-0.129 0.159-0.209 0.324-0.24 0.496-0.032 0.167-0.013 0.332 0.056 0.495 0.069 0.159 0.188 0.306 0.359 0.444l1.176 0.948-0.245 0.302-2.237-1.803 0.235-0.289 0.614 0.495-0.153-0.046c-0.104-0.201-0.139-0.417-0.103-0.646 0.033-0.231 0.136-0.455 0.311-0.67z"></path>
<path d="M8.349 7.512c-0.23 0.154-0.473 0.242-0.727 0.263-0.253 0.016-0.494-0.031-0.723-0.141-0.231-0.113-0.426-0.288-0.585-0.524-0.161-0.239-0.25-0.485-0.267-0.737s0.032-0.491 0.144-0.716c0.112-0.225 0.285-0.415 0.519-0.572 0.236-0.159 0.48-0.247 0.731-0.267 0.254-0.021 0.494 0.024 0.72 0.137 0.229 0.11 0.424 0.285 0.585 0.524 0.159 0.236 0.248 0.482 0.267 0.737 0.019 0.251-0.027 0.491-0.141 0.721-0.115 0.227-0.29 0.419-0.523 0.575zM8.156 7.227c0.173-0.116 0.3-0.256 0.383-0.421 0.080-0.168 0.111-0.347 0.093-0.537-0.017-0.195-0.088-0.385-0.213-0.569-0.127-0.188-0.276-0.324-0.449-0.411-0.17-0.088-0.347-0.126-0.531-0.112-0.186 0.011-0.364 0.073-0.534 0.187s-0.295 0.255-0.375 0.423c-0.082 0.165-0.116 0.344-0.101 0.536s0.086 0.382 0.213 0.569c0.125 0.184 0.274 0.321 0.449 0.411 0.173 0.086 0.352 0.124 0.539 0.113 0.184-0.014 0.36-0.077 0.527-0.188z"></path>
<path d="M10.498 6.236l-1.733-2.537 0.362-0.087 1.588 2.358-0.165 0.040 0.354-2.828 0.325-0.079 1.604 2.355-0.165 0.040 0.343-2.826 0.346-0.084-0.379 3.048-0.356 0.086-1.529-2.209 0.112-0.027-0.349 2.664-0.356 0.086z"></path>
<path d="M16.333 5.834c-0.232-0.050-0.444-0.129-0.638-0.237-0.192-0.112-0.337-0.231-0.433-0.356l0.236-0.263c0.096 0.11 0.226 0.216 0.391 0.319 0.165 0.099 0.346 0.169 0.542 0.211 0.268 0.057 0.469 0.057 0.605 0.001 0.136-0.060 0.219-0.16 0.249-0.299 0.022-0.103 0.006-0.191-0.050-0.263-0.051-0.074-0.127-0.137-0.228-0.189-0.1-0.055-0.214-0.107-0.341-0.157s-0.254-0.103-0.38-0.16c-0.122-0.056-0.231-0.122-0.327-0.199-0.095-0.080-0.166-0.175-0.213-0.286-0.043-0.11-0.048-0.245-0.013-0.406 0.033-0.153 0.105-0.282 0.217-0.385s0.257-0.171 0.436-0.203c0.183-0.035 0.394-0.028 0.633 0.023 0.182 0.039 0.359 0.103 0.53 0.192 0.172 0.085 0.308 0.18 0.409 0.283l-0.232 0.27c-0.106-0.112-0.227-0.202-0.362-0.268-0.134-0.070-0.273-0.12-0.416-0.15-0.253-0.054-0.45-0.050-0.591 0.014-0.136 0.060-0.219 0.158-0.248 0.294-0.023 0.107-0.009 0.198 0.042 0.272 0.055 0.075 0.132 0.142 0.231 0.201 0.104 0.056 0.217 0.108 0.341 0.157 0.127 0.050 0.252 0.104 0.373 0.164 0.126 0.057 0.237 0.123 0.332 0.2 0.1 0.074 0.172 0.165 0.215 0.276 0.048 0.107 0.055 0.238 0.022 0.391-0.035 0.164-0.112 0.297-0.231 0.398-0.115 0.099-0.267 0.163-0.456 0.194-0.185 0.028-0.401 0.015-0.647-0.038z"></path>
<path d="M20.603 4.274c0.207 0.108 0.367 0.243 0.48 0.405 0.118 0.16 0.178 0.344 0.181 0.551 0.006 0.209-0.056 0.436-0.185 0.682l-0.776 1.478-0.345-0.18 0.758-1.444c0.141-0.268 0.179-0.506 0.114-0.712-0.060-0.208-0.211-0.375-0.454-0.502-0.181-0.094-0.359-0.14-0.534-0.136-0.17 0.002-0.329 0.053-0.476 0.153-0.142 0.099-0.265 0.245-0.366 0.439l-0.702 1.338-0.345-0.18 1.887-3.596 0.345 0.18-0.918 1.75 0.001-0.166c0.178-0.142 0.382-0.218 0.615-0.229 0.234-0.014 0.474 0.043 0.72 0.172z"></path>
<path d="M21.541 8.529c-0.197-0.195-0.331-0.415-0.402-0.659-0.065-0.244-0.066-0.489-0.003-0.734 0.066-0.248 0.2-0.472 0.401-0.674 0.203-0.204 0.428-0.339 0.673-0.404s0.49-0.065 0.733 0.001c0.243 0.066 0.465 0.198 0.664 0.396 0.202 0.2 0.338 0.421 0.406 0.663 0.071 0.245 0.073 0.488 0.007 0.73-0.064 0.245-0.197 0.47-0.401 0.674-0.201 0.202-0.425 0.336-0.673 0.404-0.243 0.068-0.488 0.069-0.737 0.003-0.246-0.069-0.469-0.202-0.668-0.399zM21.784 8.284c0.148 0.146 0.311 0.244 0.49 0.292 0.181 0.046 0.363 0.041 0.547-0.014 0.188-0.055 0.361-0.161 0.518-0.319 0.16-0.16 0.265-0.333 0.316-0.519 0.054-0.183 0.056-0.363 0.006-0.541-0.047-0.18-0.143-0.342-0.289-0.486s-0.308-0.238-0.489-0.284c-0.179-0.048-0.361-0.046-0.547 0.006s-0.359 0.158-0.518 0.319c-0.157 0.158-0.262 0.331-0.316 0.519-0.051 0.186-0.053 0.369-0.006 0.549 0.050 0.178 0.146 0.337 0.289 0.478z"></path>
<path d="M23.572 11.22c-0.118-0.218-0.174-0.443-0.17-0.673 0.008-0.232 0.078-0.452 0.211-0.659 0.138-0.206 0.345-0.383 0.621-0.531s0.538-0.222 0.783-0.22c0.248-0.001 0.47 0.061 0.665 0.184s0.352 0.296 0.472 0.517c0.13 0.241 0.191 0.485 0.184 0.734-0.002 0.25-0.072 0.482-0.209 0.696-0.134 0.213-0.328 0.387-0.582 0.523-0.257 0.138-0.512 0.204-0.764 0.198s-0.484-0.076-0.698-0.21c-0.212-0.131-0.382-0.317-0.512-0.558zM21.957 10.403l3.469-1.858 0.177 0.328-0.762 0.408-0.525 0.238-0.486 0.322-1.689 0.904-0.184-0.342zM23.863 11.034c0.097 0.18 0.224 0.319 0.38 0.417 0.16 0.097 0.336 0.147 0.529 0.151 0.196 0.003 0.392-0.049 0.589-0.154s0.346-0.239 0.449-0.402c0.103-0.163 0.158-0.337 0.166-0.523s-0.037-0.369-0.134-0.549c-0.097-0.18-0.226-0.32-0.388-0.419-0.16-0.097-0.336-0.147-0.529-0.151-0.191-0.001-0.385 0.051-0.581 0.156s-0.348 0.238-0.456 0.4c-0.103 0.163-0.158 0.337-0.166 0.523-0.003 0.188 0.045 0.371 0.142 0.551z"></path>
</symbol>
<symbol id="icon-burger" viewBox="0 0 32 32">
<path d="M4 5.333h24v2.667h-24v-2.667zM12 14.667h16v2.667h-16v-2.667zM4 24h24v2.667h-24v-2.667z"></path>
</symbol>
<symbol id="icon-phone" viewBox="0 0 32 32">
<path d="M26.332 6.267l-3.347-3.344c-0.409-0.409-0.955-0.638-1.534-0.638s-1.125 0.226-1.534 0.638l-3.605 3.598c-0.409 0.409-0.638 0.958-0.638 1.537 0 0.581 0.226 1.125 0.638 1.537l2.816 2.819c-0.642 1.495-1.563 2.852-2.715 4-1.153 1.16-2.502 2.074-3.998 2.721l-2.816-2.819c-0.409-0.408-0.955-0.638-1.534-0.638-0.285-0.001-0.568 0.055-0.831 0.164s-0.502 0.271-0.703 0.473l-3.608 3.598c-0.409 0.408-0.638 0.958-0.638 1.537 0 0.581 0.226 1.125 0.638 1.537l3.344 3.344c0.698 0.698 1.659 1.097 2.646 1.097 0.204 0 0.402-0.016 0.603-0.050 4.161-0.685 8.291-2.9 11.625-6.232 3.331-3.337 5.544-7.466 6.235-11.63 0.198-1.182-0.198-2.398-1.047-3.249zM25.15 9.143c-0.613 3.705-2.605 7.401-5.607 10.402s-6.694 4.993-10.4 5.606c-0.465 0.078-0.943-0.078-1.282-0.415l-3.284-3.284 3.482-3.485 3.793 3.799 0.679-0.251c2.058-0.757 3.928-1.952 5.478-3.503s2.745-3.42 3.501-5.479l0.251-0.679-3.797-3.793 3.482-3.485 3.284 3.284c0.339 0.339 0.497 0.817 0.418 1.282z"></path>
</symbol>
<symbol id="icon-logo" viewBox="0 0 40 32">
<path d="M16.463 31.448v-5.12l-0.132-0.839v-8.563c0-1.971-0.559-3.487-1.677-4.546-1.089-1.059-2.722-1.589-4.899-1.589-1.501 0-2.928 0.25-4.281 0.75s-2.501 1.162-3.443 1.986l-1.412-2.339c1.177-1 2.589-1.766 4.237-2.295 1.648-0.559 3.384-0.839 5.208-0.839 3.001 0 5.311 0.75 6.93 2.251 1.648 1.471 2.472 3.722 2.472 6.753v14.389h-3.001zM8.474 31.669c-1.736 0-3.252-0.28-4.546-0.839-1.265-0.589-2.236-1.383-2.913-2.383-0.677-1.030-1.015-2.207-1.015-3.531 0-1.206 0.28-2.295 0.839-3.266 0.589-1 1.53-1.795 2.825-2.383 1.324-0.618 3.090-0.927 5.297-0.927h7.989v2.339h-7.901c-2.236 0-3.796 0.397-4.679 1.192-0.853 0.794-1.28 1.78-1.28 2.957 0 1.324 0.515 2.383 1.545 3.178s2.472 1.192 4.326 1.192c1.766 0 3.281-0.397 4.546-1.192 1.295-0.824 2.236-2.001 2.825-3.531l0.706 2.163c-0.589 1.53-1.618 2.751-3.090 3.663-1.442 0.912-3.266 1.368-5.473 1.368z"></path>
<path d="M29.44 31.669c-2.413 0-4.531-0.5-6.356-1.501-1.824-1.030-3.251-2.428-4.281-4.193-1.030-1.795-1.545-3.84-1.545-6.135s0.486-4.326 1.457-6.091c1-1.766 2.354-3.149 4.061-4.149 1.736-1.030 3.678-1.545 5.826-1.545 2.178 0 4.105 0.5 5.782 1.501 1.707 0.971 3.046 2.354 4.017 4.149 0.971 1.766 1.457 3.811 1.457 6.135 0 0.147-0.015 0.309-0.044 0.486 0 0.147 0 0.309 0 0.486h-20.171v-2.339h18.494l-1.236 0.927c0-1.677-0.368-3.163-1.103-4.458-0.706-1.324-1.677-2.354-2.913-3.090s-2.663-1.103-4.281-1.103c-1.589 0-3.016 0.368-4.281 1.103s-2.251 1.766-2.957 3.090c-0.706 1.324-1.059 2.84-1.059 4.546v0.486c0 1.766 0.383 3.325 1.148 4.679 0.794 1.324 1.883 2.369 3.266 3.134 1.412 0.736 3.016 1.103 4.811 1.103 1.412 0 2.722-0.25 3.928-0.75 1.236-0.5 2.295-1.265 3.178-2.295l1.766 2.030c-1.030 1.236-2.325 2.177-3.884 2.825-1.53 0.647-3.222 0.971-5.076 0.971z"></path>
<path d="M37.296 3.31h-15.448v-3.31h15.448v3.31z"></path>
</symbol>
</defs>
</svg>
